<?xml version="1.0" encoding="utf-8"?>
<!-- Generator: Adobe Illustrator 26.1.0, SVG Export Plug-In . SVG Version: 6.00 Build 0)  -->
<svg version="1.1" id="レイヤー_1" xmlns="http://www.w3.org/2000/svg" xmlns:xlink="http://www.w3.org/1999/xlink" x="0px"
	 y="0px" width="23px" height="23px" viewBox="0 0 23 23" style="enable-background:new 0 0 23 23;" xml:space="preserve">
<style type="text/css">
	.st0{fill:#ababab;}
	.st1{fill:none;}
</style>
<g>
	<path class="st0" d="M22.25,11.565c0-5.937-4.813-10.75-10.75-10.75S0.75,5.628,0.75,11.565c0,5.366,3.931,9.813,9.07,10.619
		v-7.512H7.091v-3.107H9.82V9.197c0-2.694,1.605-4.182,4.06-4.182c1.176,0,2.406,0.21,2.406,0.21V7.87h-1.356
		c-1.335,0-1.752,0.829-1.752,1.679v2.017h2.981l-0.477,3.107H13.18v7.512C18.319,21.378,22.25,16.931,22.25,11.565z"/>
</g>
<rect class="st1" width="23" height="23"/>
</svg>
